<svg id="right" xmlns="http://www.w3.org/2000/svg" width="28.03" height="15" viewBox="0 0 28.03 15">
  <defs>
    <style>
      .cls-1, .cls-2, .cls-3 {
        fill: #00a99d;
        fill-rule: evenodd;
      }

      .cls-1 {
        opacity: 0.4;
      }

      .cls-2 {
        opacity: 0.7;
      }
    </style>
  </defs>
  <path id="shape3" class="cls-1" d="M1110.64,937.342l2.8,2.77a1.951,1.951,0,0,1,0,2.771l-2.8,2.771a1.983,1.983,0,0,1-2.79,0l-2.79-2.771a1.951,1.951,0,0,1,0-2.771l2.79-2.77A1.983,1.983,0,0,1,1110.64,937.342Z" transform="translate(-1086 -934)"/>
  <path id="shape2" class="cls-2" d="M1102.78,935.957l4.19,4.155a1.951,1.951,0,0,1,0,2.771l-4.19,4.156a1.981,1.981,0,0,1-2.79,0l-4.19-4.156a1.951,1.951,0,0,1,0-2.771l4.19-4.155A1.983,1.983,0,0,1,1102.78,935.957Z" transform="translate(-1086 -934)"/>
  <path id="shape1" class="cls-3" d="M1094.96,934.572l5.58,5.54a1.951,1.951,0,0,1,0,2.771l-5.58,5.542a2,2,0,0,1-2.8,0l-5.58-5.542a1.951,1.951,0,0,1,0-2.771l5.58-5.54A2,2,0,0,1,1094.96,934.572Z" transform="translate(-1086 -934)"/>
</svg>
