<?xml version="1.0" encoding="utf-8"?><svg width="29" height="31" viewBox="0 0 29 31" xmlns="http://www.w3.org/2000/svg" xmlns:xlink="http://www.w3.org/1999/xlink"><svg width="28" height="15.031" viewBox="0 0 28 15.031" id="heading-left" y="15" xmlns="http://www.w3.org/2000/svg"><path d="M3.355 3.349L.562 6.125a1.956 1.956 0 0 0 0 2.777l2.793 2.776a1.983 1.983 0 0 0 2.793 0l2.793-2.776a1.956 1.956 0 0 0 0-2.777L6.148 3.349a1.983 1.983 0 0 0-2.793 0z" opacity=".4" fill="#00a99d" fill-rule="evenodd"/><path d="M11.218 1.961l-4.19 4.164a1.956 1.956 0 0 0 0 2.777l4.19 4.164a1.983 1.983 0 0 0 2.793 0L18.2 8.902a1.956 1.956 0 0 0 0-2.777l-4.189-4.164a1.985 1.985 0 0 0-2.793 0z" opacity=".7" fill="#00a99d" fill-rule="evenodd"/><path d="M19.042.573l-5.586 5.552a1.956 1.956 0 0 0 0 2.777l5.586 5.553a1.985 1.985 0 0 0 2.793 0l5.587-5.553a1.956 1.956 0 0 0 0-2.777L21.835.573a1.983 1.983 0 0 0-2.793 0z" fill="#00a99d" fill-rule="evenodd"/></svg><svg width="28.03" height="15" viewBox="0 0 28.03 15" id="heading-right" xmlns="http://www.w3.org/2000/svg"><path d="M24.64 3.342l2.8 2.77a1.951 1.951 0 0 1 0 2.771l-2.8 2.771a1.983 1.983 0 0 1-2.79 0l-2.79-2.771a1.951 1.951 0 0 1 0-2.771l2.79-2.77a1.983 1.983 0 0 1 2.79 0z" opacity=".4" fill="#00a99d" fill-rule="evenodd"/><path d="M16.78 1.957l4.19 4.155a1.951 1.951 0 0 1 0 2.771l-4.19 4.156a1.981 1.981 0 0 1-2.79 0L9.8 8.883a1.951 1.951 0 0 1 0-2.771l4.19-4.155a1.983 1.983 0 0 1 2.79 0z" opacity=".7" fill="#00a99d" fill-rule="evenodd"/><path d="M8.96.572l5.58 5.54a1.951 1.951 0 0 1 0 2.771l-5.58 5.542a2 2 0 0 1-2.8 0L.58 8.883a1.951 1.951 0 0 1 0-2.771L6.16.572a2 2 0 0 1 2.8 0z" fill="#00a99d" fill-rule="evenodd"/></svg></svg>