<svg id="left" xmlns="http://www.w3.org/2000/svg" width="28" height="15.031" viewBox="0 0 28 15.031">
  <defs>
    <style>
      .cls-1, .cls-2, .cls-3 {
        fill: #00a99d;
        fill-rule: evenodd;
      }

      .cls-1 {
        opacity: 0.4;
      }

      .cls-2 {
        opacity: 0.7;
      }
    </style>
  </defs>
  <path id="shape3" class="cls-1" d="M808.386,937.318l-2.793,2.776a1.956,1.956,0,0,0,0,2.777l2.793,2.776a1.983,1.983,0,0,0,2.793,0l2.793-2.776a1.956,1.956,0,0,0,0-2.777l-2.793-2.776A1.983,1.983,0,0,0,808.386,937.318Z" transform="translate(-805.031 -933.969)"/>
  <path id="shape2" class="cls-2" d="M816.249,935.93l-4.19,4.164a1.956,1.956,0,0,0,0,2.777l4.19,4.164a1.983,1.983,0,0,0,2.793,0l4.189-4.164a1.956,1.956,0,0,0,0-2.777l-4.189-4.164A1.985,1.985,0,0,0,816.249,935.93Z" transform="translate(-805.031 -933.969)"/>
  <path id="shape1" class="cls-3" d="M824.073,934.542l-5.586,5.552a1.956,1.956,0,0,0,0,2.777l5.586,5.553a1.985,1.985,0,0,0,2.793,0l5.587-5.553a1.956,1.956,0,0,0,0-2.777l-5.587-5.552A1.983,1.983,0,0,0,824.073,934.542Z" transform="translate(-805.031 -933.969)"/>
</svg>
